<svg viewBox="0 0 900 600" xmlns="http://www.w3.org/2000/svg" role="img" aria-label="Allgäu Stays">
  <!-- Mountain mark (from allgaeu-stays.com favicon), cropped to the mark's bbox and centered -->
  <svg x="300" y="40" width="300" height="263" viewBox="845 140 490 430" preserveAspectRatio="xMidYMid meet">
    <path transform="translate(1177,362)" d="m0 0h2l8 11 12 14 11 14 13 16 12 16 11 14 12 14 10 13 9 11 11 13 8 10 13 16 11 14 10 13v2l-13 1h-89l-10-13-9-13-13-18-10-13-13-17-2-3-5 1-25 12-33 15-40 15-40 13-36 9-35 7-25 4-23 2-21 1h-13l-3-2 8-3 45-15 25-10 29-13 21-11 24-14 18-11 18-13 20-14 13-10 14-12 11-9 10-9 8-7 13-12 15-15 7-8z" fill="#2F4F3E"/>
    <path transform="translate(1007,145)" d="m0 0h2l12 16 28 36 11 15 4 6-1 4-11 20-11 17-11 16-14 19-10 13-11 14-9 11-12 14-16 17-11 12-15 15-8 7-9 9-8 7-10 9-17 14-16 13-36 27-20 14-22 14-15 9-27 15-19 10-31 14-3-1 13-10 10-9 8-7 12-11 13-12 10-10 8-7 21-21 7-8 13-13 7-8 12-14 10-11 11-14 9-11 13-17 14-18 13-18 11-15 16-24 19-29 16-27 10-17 15-27 14-26 8-16z" fill="#2F4F3E"/>
    <path transform="translate(1089,249)" d="m0 0 4 5 9 11 13 17 10 13 10 14 12 15 1 5-11 13-9 11-21 21-7 8-17 16-11 10-10 8-13 11-18 13-17 12-20 13-24 14-21 12-23 12-30 13-36 13-26 8-26 6-32 6h-7l4-3 33-16 24-14 18-12 22-15 19-14 17-14 9-7 14-12 10-10 8-7 11-11 8-7 13-13 7-8 15-16 7-8 12-14 8-10 13-16 12-16 22-33 12-21z" fill="#2F4F3E"/>
  </svg>
  <!-- Wordmark -->
  <text x="450" y="500" text-anchor="middle" font-family="Inter, 'Helvetica Neue', Helvetica, Arial, sans-serif" font-weight="700" font-size="84" letter-spacing="10" fill="#2F4F3E">ALLGÄU STAYS</text>
</svg>
