<svg clip-rule="evenodd" fill-rule="evenodd" stroke-linejoin="round" stroke-miterlimit="2" viewBox="0 0 284 284" xmlns="http://www.w3.org/2000/svg"><path d="m187.342 232.361c-.217 0-.436 0-.657-.001-23.919-.128-46.867-5.318-68.21-15.424-14.355-6.799-28.007-15.833-40.639-26.886-9.712 19.474-16.846 33.796-17.06 34.225-1.278 2.567-4.394 3.611-6.961 2.332-2.567-1.278-3.611-4.395-2.334-6.961.888-1.782 8.488-17.041 18.456-37.028-9.227-9.597-15.842-20.484-18.846-31.133-3.707-13.153-1.72-25.119 5.601-33.695 5.138-6.017 12.073-9 19.527-8.411 7.71.612 15.183 5.091 19.04 11.409.93 1.523 1.943 3.251 3.003 5.107 12.057-24.105 22.399-44.701 25.015-49.688 7.06-13.451 13.155-25.068 27.544-25.068 14.338 0 20.664 11.581 27.989 24.992 3.209 5.874 13.585 26.205 24.18 47.343l14.995-30.736c1.258-2.578 4.364-3.648 6.943-2.391 2.576 1.257 3.646 4.366 2.389 6.942l-18.481 37.887c8.515 17.106 16.323 33.076 19.65 40.5 7.299 16.288 7.651 30.28 1.015 40.465-7.014 10.765-21.196 16.22-42.159 16.22zm-104.706-51.935c12.479 11.249 26.023 20.372 40.284 27.125 19.959 9.451 41.433 14.306 63.822 14.425.198.001.396.003.593.003 16.995 0 28.559-3.975 33.466-11.506 6.134-9.417 1.511-23.183-1.791-30.55-2.782-6.207-8.892-18.767-15.925-32.96l-7.467 15.309c-.008.017-.018.035-.026.052-1.786 3.558-7.167 9.579-16.009 9.579-8.742 0-14.343-6.132-16.3-9.798l-9.187-16.573c-.001-.003-.002-.006-.004-.009-.078-.128-1.433-2.326-3.23-2.326-1.767 0-3.11 2.133-3.223 2.32l-8.85 16.559c-1.97 3.658-7.695 9.827-16.704 9.827-9.091 0-14.579-6.242-16.406-9.963-.248-.487-3.24-6.387-7.031-13.591-5.451 10.911-10.954 21.936-16.012 32.077zm-8.292-60.738c-3.729 0-7.006 1.627-9.755 4.845-9.501 11.128-4.944 30.86 10.304 48.15 5.659-11.343 11.797-23.64 17.749-35.548-2.238-4.088-4.426-7.956-6.245-10.937-2.114-3.461-6.637-6.121-11-6.467-.355-.029-.706-.043-1.053-.043zm98.082 37.492c.24.415 2.634 4.34 7.157 4.34 4.559 0 6.615-3.645 6.724-3.845l10.946-22.438c-11.764-23.558-24.231-48.041-27.557-54.128-7.601-13.918-11.437-19.586-18.875-19.586-7.412 0-10.918 5.35-18.347 19.51-2.783 5.3-14.745 29.148-28.123 55.906 5.376 10.01 10.287 19.71 10.608 20.345.029.057.013.022.024.047.314.579 2.451 4.189 7.102 4.189 4.889 0 7.369-4.044 7.573-4.392l8.851-16.561c1.545-2.883 5.882-7.754 12.353-7.754 6.445 0 10.772 4.829 12.332 7.712l9.193 16.585c.033.058.022.035.039.07z" fill="#002047" fill-rule="nonzero"/></svg>